# xmcd CD database file
#
# Track frame offsets:
#	187
#	19817
#	45930
#	64917
#	83992
#	107807
#	130487
#	149592
#
# Disc length: 2270 seconds
#
# Revision: 0
# Processed by: cddbd v1.5.2PL0 Copyright (c) Steve Scherf et al.
# Submitted via: CDex 1.51
#
DISCID=7008dc08
DTITLE=Sarabanda - Sarabanda
DYEAR=1989
DGENRE=Salsa
TTITLE0=Barranquillero Arrebatao
TTITLE1=Que Seas Feliz
TTITLE2=Abrazame
TTITLE3=Tu Pañuelo
TTITLE4=Maria
TTITLE5=Cali Rumbera
TTITLE6=Reproches
TTITLE7=Cualquier Cosa
EXTD=YEAR: 1989
EXTT0=
EXTT1=
EXTT2=
EXTT3=
EXTT4=
EXTT5=
EXTT6=
EXTT7=
PLAYORDER=
